<svg width="54" height="27" viewBox="0 0 54 27" fill="none" xmlns="http://www.w3.org/2000/svg">
<path d="M1.94318 12L0.488632 0.363647H3.59659L4.09659 7.98865H4.19318L7.45454 0.363647H9.98863L10.7386 8.00569H10.8295L13.8523 0.363647H16.9545L11.642 12H8.93181L8.01704 4.94319H7.92613L4.64772 12H1.94318Z" fill="white"/>
<path d="M19.2841 12.1648C18.3636 12.1648 17.6042 11.9754 17.0057 11.5966C16.411 11.2178 15.9924 10.6894 15.75 10.0114C15.5076 9.33334 15.4602 8.54547 15.608 7.64774C15.7557 6.7538 16.0606 5.96971 16.5227 5.29547C16.9848 4.62122 17.5758 4.0966 18.2955 3.7216C19.0151 3.3466 19.8314 3.1591 20.7443 3.1591C21.661 3.1591 22.4167 3.3485 23.0114 3.72728C23.6098 4.10607 24.0303 4.63448 24.2727 5.31251C24.5189 5.99054 24.5682 6.78031 24.4205 7.68183C24.2727 8.57577 23.9659 9.35986 23.5 10.0341C23.0341 10.7046 22.4432 11.2273 21.7273 11.6023C21.0114 11.9773 20.197 12.1648 19.2841 12.1648ZM19.5966 10.0682C19.9375 10.0682 20.2424 9.96592 20.5114 9.76138C20.7841 9.55683 21.0133 9.27084 21.1989 8.90342C21.3845 8.536 21.517 8.10986 21.5966 7.62501C21.6761 7.14774 21.6837 6.72918 21.6193 6.36933C21.5587 6.00569 21.4299 5.7235 21.233 5.52274C21.036 5.31819 20.7689 5.21592 20.4318 5.21592C20.0909 5.21592 19.7841 5.32009 19.5114 5.52842C19.2386 5.73297 19.0095 6.01895 18.8239 6.38637C18.642 6.75001 18.5114 7.17615 18.4318 7.66478C18.3523 8.14206 18.3428 8.56062 18.4034 8.92047C18.464 9.28031 18.5947 9.56251 18.7955 9.76706C18.9962 9.96781 19.2633 10.0682 19.5966 10.0682Z" fill="white"/>
<path d="M25.1222 12L26.5767 3.27274H29.2756L29.0085 4.86365H29.0994C29.3532 4.28789 29.6847 3.85986 30.0937 3.57956C30.5028 3.29547 30.946 3.15342 31.4233 3.15342C31.5521 3.15342 31.6809 3.16289 31.8097 3.18183C31.9422 3.19698 32.0672 3.21971 32.1847 3.25001L31.7756 5.67047C31.6468 5.62122 31.4782 5.58524 31.2699 5.56251C31.0615 5.536 30.8722 5.52274 30.7017 5.52274C30.3722 5.52274 30.0653 5.5966 29.7812 5.74433C29.5009 5.88827 29.2623 6.09092 29.0653 6.35228C28.8722 6.60986 28.7453 6.91289 28.6847 7.26137L27.9006 12H25.1222Z" fill="white"/>
<path d="M34.5795 12.125C33.9356 12.125 33.3769 11.9583 32.9034 11.625C32.4299 11.2917 32.0909 10.7917 31.8864 10.125C31.6856 9.45834 31.6667 8.63069 31.8295 7.64206C32 6.61554 32.303 5.77084 32.7386 5.10797C33.1742 4.44509 33.6818 3.95456 34.2614 3.63637C34.8447 3.31819 35.4394 3.1591 36.0455 3.1591C36.5038 3.1591 36.8826 3.23865 37.1818 3.39774C37.4848 3.55304 37.7216 3.7538 37.892 4.00001C38.0625 4.24622 38.1799 4.50191 38.2443 4.76706H38.3068L39.0398 0.363647H41.8182L39.8864 12H37.1364L37.3693 10.5852H37.2841C37.1212 10.8542 36.9129 11.1061 36.6591 11.3409C36.4053 11.5758 36.1042 11.7652 35.7557 11.9091C35.411 12.053 35.0189 12.125 34.5795 12.125ZM35.892 9.96024C36.2292 9.96024 36.5341 9.86554 36.8068 9.67615C37.0795 9.48297 37.3087 9.21213 37.4943 8.86365C37.6837 8.51516 37.8163 8.10607 37.892 7.63637C37.9716 7.1591 37.9754 6.74812 37.9034 6.40342C37.8314 6.05872 37.6894 5.79357 37.4773 5.60797C37.2689 5.42236 36.9943 5.32956 36.6534 5.32956C36.3125 5.32956 36.0076 5.42425 35.7386 5.61365C35.4697 5.80304 35.2462 6.07009 35.0682 6.41478C34.8901 6.75948 34.7614 7.16668 34.6818 7.63637C34.6061 8.10607 34.5985 8.51516 34.6591 8.86365C34.7235 9.21213 34.858 9.48297 35.0625 9.67615C35.2708 9.86554 35.5473 9.96024 35.892 9.96024Z" fill="white"/>
<path d="M15.6932 27L14.2386 15.3636H17.3466L17.8466 22.9886H17.9432L21.2045 15.3636H23.7386L24.4886 23.0057H24.5795L27.6023 15.3636H30.7045L25.392 27H22.6818L21.767 19.9432H21.6761L18.3977 27H15.6932Z" fill="white"/>
<path d="M33.5597 22.0227L32.7301 27H29.9517L31.8835 15.3636H34.571L33.8324 19.875H33.929C34.2093 19.3371 34.5994 18.9167 35.0994 18.6136C35.5994 18.3106 36.179 18.1591 36.8381 18.1591C37.4441 18.1591 37.9517 18.2955 38.3608 18.5682C38.7699 18.8371 39.0597 19.2178 39.2301 19.7102C39.4006 20.2027 39.4309 20.7784 39.321 21.4375L38.3892 27H35.6108L36.4517 21.983C36.5275 21.4981 36.465 21.1193 36.2642 20.8466C36.0634 20.5739 35.7415 20.4375 35.2983 20.4375C35.0066 20.4375 34.7377 20.5019 34.4915 20.6307C34.249 20.7557 34.0464 20.9356 33.8835 21.1705C33.7206 21.4053 33.6127 21.6894 33.5597 22.0227Z" fill="white"/>
<path d="M40.1065 27L41.5611 18.2727H44.3395L42.8849 27H40.1065ZM43.1463 17.25C42.7524 17.25 42.4323 17.1193 42.1861 16.858C41.9399 16.5966 41.8433 16.2841 41.8963 15.9205C41.9493 15.553 42.1349 15.2405 42.4531 14.983C42.7713 14.7254 43.1255 14.5966 43.5156 14.5966C43.9096 14.5966 44.2258 14.7254 44.4645 14.983C44.7069 15.2405 44.8016 15.553 44.7486 15.9205C44.7031 16.2841 44.5213 16.5966 44.2031 16.858C43.8887 17.1193 43.5365 17.25 43.1463 17.25Z" fill="white"/>
<path d="M44.6932 27L44.9489 25.4148L49.8068 20.4886L49.8295 20.4318H45.9205L46.2898 18.2727H53.5057L53.233 20.0114L48.6932 24.7841L48.6705 24.8409H52.5568L52.2102 27H44.6932Z" fill="white"/>
</svg>
